<svg xmlns="http://www.w3.org/2000/svg" viewBox="0 0 800 360">
  <rect width="800" height="360" rx="8" fill="#0d1117"/>
  
  <!-- Left: code panel -->
  <rect x="20" y="20" width="300" height="320" rx="6" fill="#161b22" stroke="#30363d" stroke-width="1"/>
  <rect x="20" y="20" width="300" height="34" rx="6" fill="#21262d"/>
  <rect x="20" y="48" width="300" height="6" fill="#21262d"/>
  <circle cx="36" cy="37" r="4" fill="#f85149"/>
  <circle cx="52" cy="37" r="4" fill="#d29922"/>
  <circle cx="68" cy="37" r="4" fill="#3fb950"/>

  <rect x="36" y="68" width="120" height="8" rx="2" fill="#ff7b72" opacity="0.8"/>
  <rect x="160" y="68" width="14" height="8" rx="2" fill="#8b949e" opacity="0.8"/>
  <rect x="48" y="84" width="200" height="8" rx="2" fill="#a5d6ff" opacity="0.6"/>
  <rect x="48" y="100" width="180" height="8" rx="2" fill="#a5d6ff" opacity="0.6"/>
  <rect x="48" y="116" width="160" height="8" rx="2" fill="#a5d6ff" opacity="0.6"/>
  <rect x="36" y="132" width="14" height="8" rx="2" fill="#8b949e" opacity="0.8"/>
  <line x1="36" y1="152" x2="284" y2="152" stroke="#30363d" stroke-width="1"/>

  <rect x="36" y="168" width="200" height="6" rx="3" fill="#21262d"/>
  <rect x="36" y="168" width="130" height="6" rx="3" fill="#a371f7" opacity="0.7"/>
  
  <rect x="36" y="186" width="160" height="6" rx="2" fill="#3fb950" opacity="0.5"/>
  <rect x="36" y="200" width="180" height="6" rx="2" fill="#3fb950" opacity="0.5"/>
  <rect x="36" y="214" width="150" height="6" rx="2" fill="#3fb950" opacity="0.5"/>
  <rect x="36" y="240" width="180" height="6" rx="2" fill="#8b949e" opacity="0.4"/>
  <rect x="36" y="256" width="210" height="6" rx="2" fill="#8b949e" opacity="0.4"/>

  <!-- Arrow -->
  <line x1="330" y1="170" x2="410" y2="170" stroke="#a371f7" stroke-width="3" stroke-dasharray="6,3"/>
  <polygon points="420,170 412,164 412,176" fill="#a371f7"/>

  <!-- Right: widget panel -->
  <rect x="440" y="20" width="340" height="320" rx="6" fill="#161b22" stroke="#30363d" stroke-width="1"/>
  <rect x="440" y="20" width="340" height="34" rx="6" fill="#21262d"/>
  <rect x="440" y="48" width="340" height="6" fill="#21262d"/>

  <!-- Chart -->
  <line x1="470" y1="100" x2="470" y2="290" stroke="#30363d" stroke-width="1"/>
  <line x1="470" y1="290" x2="740" y2="290" stroke="#30363d" stroke-width="1"/>

  <rect x="490" y="240" width="36" height="50" rx="3" fill="#58a6ff" opacity="0.7"/>
  <rect x="536" y="200" width="36" height="90" rx="3" fill="#3fb950" opacity="0.7"/>
  <rect x="582" y="220" width="36" height="70" rx="3" fill="#58a6ff" opacity="0.7"/>
  <rect x="628" y="180" width="36" height="110" rx="3" fill="#bc8cff" opacity="0.7"/>
  <rect x="674" y="210" width="36" height="80" rx="3" fill="#3fb950" opacity="0.7"/>

  <!-- Bottom bar -->
  <rect x="230" y="348" width="340" height="12" rx="2" fill="#484f58" opacity="0.3"/>
</svg>
