<svg xmlns="http://www.w3.org/2000/svg" viewBox="0 0 800 340">
  <rect width="800" height="340" rx="8" fill="#0d1117"/>

  <!-- Title bar -->
  <rect x="20" y="12" width="760" height="32" rx="6" fill="#161b22" stroke="#30363d" stroke-width="1"/>
  <circle cx="750" cy="28" r="7" fill="#3fb950"/>
  <circle cx="736" cy="28" r="5" fill="#d29922"/>
  <circle cx="722" cy="28" r="5" fill="#58a6ff"/>

  <!-- Column 1: TODO -->
  <rect x="20" y="56" width="180" height="270" rx="6" fill="#161b22" stroke="#30363d" stroke-width="1"/>
  <rect x="20" y="56" width="180" height="30" rx="6" fill="#21262d"/>
  <rect x="20" y="80" width="180" height="6" fill="#21262d"/>
  <circle cx="36" cy="71" r="4" fill="#8b949e"/>

  <rect x="28" y="96" width="164" height="36" rx="4" fill="#21262d" stroke="#30363d" stroke-width="1"/>
  <rect x="28" y="96" width="4" height="36" rx="2" fill="#f0883e"/>
  <rect x="40" y="104" width="100" height="8" rx="2" fill="#c9d1d9" opacity="0.6"/>
  <rect x="40" y="118" width="80" height="6" rx="2" fill="#8b949e" opacity="0.4"/>

  <rect x="28" y="140" width="164" height="36" rx="4" fill="#21262d" stroke="#30363d" stroke-width="1"/>
  <rect x="28" y="140" width="4" height="36" rx="2" fill="#d29922"/>
  <rect x="40" y="148" width="90" height="8" rx="2" fill="#c9d1d9" opacity="0.6"/>
  <rect x="40" y="162" width="80" height="6" rx="2" fill="#8b949e" opacity="0.4"/>

  <rect x="28" y="184" width="164" height="36" rx="4" fill="#21262d" stroke="#30363d" stroke-width="1"/>
  <rect x="28" y="184" width="4" height="36" rx="2" fill="#d29922"/>
  <rect x="40" y="192" width="80" height="8" rx="2" fill="#c9d1d9" opacity="0.6"/>
  <rect x="40" y="206" width="80" height="6" rx="2" fill="#8b949e" opacity="0.4"/>

  <rect x="28" y="228" width="164" height="36" rx="4" fill="#21262d" stroke="#30363d" stroke-width="1"/>
  <rect x="28" y="228" width="4" height="36" rx="2" fill="#3fb950"/>
  <rect x="40" y="236" width="90" height="8" rx="2" fill="#c9d1d9" opacity="0.6"/>
  <rect x="40" y="250" width="80" height="6" rx="2" fill="#8b949e" opacity="0.4"/>

  <!-- Column 2: DOING -->
  <rect x="212" y="56" width="180" height="270" rx="6" fill="#161b22" stroke="#30363d" stroke-width="1"/>
  <rect x="212" y="56" width="180" height="30" rx="6" fill="#21262d"/>
  <rect x="212" y="80" width="180" height="6" fill="#21262d"/>
  <circle cx="228" cy="71" r="4" fill="#58a6ff"/>

  <rect x="220" y="96" width="164" height="36" rx="4" fill="#21262d" stroke="#1f6feb" stroke-opacity="0.3" stroke-width="1"/>
  <rect x="220" y="96" width="4" height="36" rx="2" fill="#58a6ff"/>
  <rect x="232" y="104" width="120" height="8" rx="2" fill="#c9d1d9" opacity="0.6"/>
  <rect x="232" y="118" width="80" height="6" rx="2" fill="#8b949e" opacity="0.4"/>
  <rect x="340" y="100" width="38" height="14" rx="7" fill="#1f6feb" opacity="0.15"/>

  <rect x="220" y="140" width="164" height="36" rx="4" fill="#21262d" stroke="#1f6feb" stroke-opacity="0.3" stroke-width="1"/>
  <rect x="220" y="140" width="4" height="36" rx="2" fill="#d29922"/>
  <rect x="232" y="148" width="110" height="8" rx="2" fill="#c9d1d9" opacity="0.6"/>
  <rect x="232" y="162" width="80" height="6" rx="2" fill="#8b949e" opacity="0.4"/>
  <rect x="340" y="144" width="38" height="14" rx="7" fill="#1f6feb" opacity="0.15"/>

  <!-- Column 3: DONE -->
  <rect x="404" y="56" width="180" height="270" rx="6" fill="#161b22" stroke="#30363d" stroke-width="1"/>
  <rect x="404" y="56" width="180" height="30" rx="6" fill="#21262d"/>
  <rect x="404" y="80" width="180" height="6" fill="#21262d"/>
  <circle cx="420" cy="71" r="4" fill="#3fb950"/>

  <rect x="412" y="96" width="164" height="30" rx="4" fill="#21262d" stroke="#30363d" stroke-width="1" opacity="0.6"/>
  <rect x="424" y="104" width="110" height="8" rx="2" fill="#8b949e" opacity="0.4"/>
  <rect x="424" y="116" width="80" height="6" rx="2" fill="#484f58" opacity="0.3"/>

  <rect x="412" y="132" width="164" height="30" rx="4" fill="#21262d" stroke="#30363d" stroke-width="1" opacity="0.6"/>
  <rect x="424" y="140" width="100" height="8" rx="2" fill="#8b949e" opacity="0.4"/>
  <rect x="424" y="152" width="80" height="6" rx="2" fill="#484f58" opacity="0.3"/>

  <rect x="412" y="168" width="164" height="30" rx="4" fill="#21262d" stroke="#30363d" stroke-width="1" opacity="0.6"/>
  <rect x="424" y="176" width="120" height="8" rx="2" fill="#8b949e" opacity="0.4"/>
  <rect x="424" y="188" width="80" height="6" rx="2" fill="#484f58" opacity="0.3"/>

  <!-- Column 4: MILESTONES -->
  <rect x="596" y="56" width="184" height="270" rx="6" fill="#161b22" stroke="#30363d" stroke-width="1"/>
  <rect x="596" y="56" width="184" height="30" rx="6" fill="#21262d"/>
  <rect x="596" y="80" width="184" height="6" fill="#21262d"/>
  <circle cx="612" cy="71" r="4" fill="#bc8cff"/>

  <rect x="604" y="96" width="168" height="46" rx="5" fill="#21262d" stroke="#30363d" stroke-width="1"/>
  <rect x="614" y="106" width="50" height="10" rx="2" fill="#bc8cff" opacity="0.6"/>
  <rect x="614" y="122" width="148" height="6" rx="3" fill="#21262d"/>
  <rect x="614" y="122" width="148" height="6" rx="3" fill="#3fb950"/>

  <rect x="604" y="150" width="168" height="46" rx="5" fill="#21262d" stroke="#30363d" stroke-width="1"/>
  <rect x="614" y="160" width="50" height="10" rx="2" fill="#bc8cff" opacity="0.6"/>
  <rect x="614" y="176" width="148" height="6" rx="3" fill="#21262d"/>
  <rect x="614" y="176" width="100" height="6" rx="3" fill="#d29922"/>

  <rect x="604" y="204" width="168" height="46" rx="5" fill="#21262d" stroke="#30363d" stroke-width="1"/>
  <rect x="614" y="214" width="50" height="10" rx="2" fill="#bc8cff" opacity="0.6"/>
  <rect x="614" y="230" width="148" height="6" rx="3" fill="#21262d"/>
  <rect x="614" y="230" width="20" height="6" rx="3" fill="#8b949e"/>

  <!-- Bottom bar -->
  <line x1="20" y1="332" x2="780" y2="332" stroke="#30363d" stroke-width="0.5"/>
</svg>
